<svg width="25" height="28" viewBox="0 0 25 28" fill="none" xmlns="http://www.w3.org/2000/svg">
<path fill-rule="evenodd" clip-rule="evenodd" d="M23.4292 0.148414C23.4346 0.151585 23.44 0.154798 23.4454 0.15805C23.4512 0.161346 23.4572 0.1647 23.463 0.168118C23.9873 0.473759 24.1669 1.15045 23.8641 1.67956C21.778 5.32321 20.6794 9.45676 20.679 13.6646C20.6786 17.8724 21.7762 22.0061 23.8616 25.6503C24.1452 26.1458 24.0056 26.7705 23.5563 27.0988C23.5018 27.1476 23.4418 27.1913 23.3763 27.2295C22.8518 27.535 22.181 27.3535 21.8784 26.8242C19.7938 23.1796 16.7949 20.1532 13.1832 18.0488C9.5715 15.9445 5.47433 14.8366 1.30366 14.8366C0.698006 14.8366 0.207031 14.3413 0.207031 13.7302C0.207031 13.5108 0.270353 13.3063 0.379573 13.1343C0.562154 12.7791 0.92997 12.5365 1.35389 12.5366C5.52456 12.5375 9.62196 11.4305 13.2341 9.32694C16.8462 7.22342 19.8458 4.19747 21.9311 0.553383C22.2339 0.0242019 22.9047 -0.157109 23.4292 0.148414ZM8.64943 13.6948C10.6069 14.2777 12.4976 15.0941 14.28 16.1326C16.0777 17.1799 17.7363 18.4365 19.2248 19.8707C18.7358 17.8477 18.4856 15.7645 18.4858 13.6644C18.4861 11.6074 18.7264 9.56666 19.1962 7.58288C17.728 8.98499 16.0963 10.2151 14.3305 11.2434C12.5327 12.2904 10.6248 13.1113 8.64943 13.6948Z" fill="white"/>
</svg>
