<svg width="25" height="21" viewBox="0 0 25 21" fill="none" xmlns="http://www.w3.org/2000/svg">
<path d="M7.85313 20.3136C17.2875 20.3136 22.4484 12.4964 22.4484 5.72921C22.4484 5.51046 22.4484 5.28858 22.4391 5.06983C23.4438 4.34247 24.311 3.44194 25 2.41046C24.0614 2.82429 23.0668 3.09703 22.0484 3.21983C23.1211 2.57864 23.9246 1.56978 24.3094 0.380771C23.3015 0.977839 22.1985 1.39698 21.0484 1.61983C20.2753 0.796432 19.2522 0.250954 18.1376 0.0678916C17.0231 -0.115171 15.8793 0.0743978 14.8833 0.607235C13.8874 1.14007 13.095 1.98644 12.6288 3.01524C12.1626 4.04404 12.0487 5.19785 12.3047 6.29796C10.2652 6.19569 8.27003 5.66588 6.4485 4.74287C4.62698 3.81986 3.01982 2.52428 1.73125 0.940146C1.07709 2.06996 0.877459 3.4064 1.17288 4.67806C1.46831 5.94973 2.23665 7.06129 3.32187 7.78702C2.50866 7.75939 1.71331 7.54102 1 7.14952V7.21983C1.0014 8.4034 1.41142 9.55018 2.16074 10.4663C2.91006 11.3825 3.95273 12.0118 5.1125 12.248C4.67229 12.3692 4.21755 12.4297 3.76094 12.4276C3.43904 12.4286 3.11778 12.3988 2.80156 12.3386C3.12935 13.3574 3.76761 14.2482 4.62695 14.8862C5.48628 15.5242 6.52365 15.8774 7.59375 15.8964C5.77587 17.3242 3.53031 18.0986 1.21875 18.0948C0.811439 18.0966 0.404411 18.0731 0 18.0245C2.34612 19.5202 5.07078 20.3144 7.85313 20.3136Z" fill="#1DA1F2"/>
</svg>
