<svg width="82" height="19" viewBox="0 0 82 19" fill="none" xmlns="http://www.w3.org/2000/svg">
<path d="M5.13012 5.0801C5.32259 5.0801 5.53913 5.09613 5.77972 5.12822C6.03628 5.14425 6.28496 5.17633 6.52556 5.22445C6.76615 5.25654 6.98268 5.29663 7.17516 5.34475C7.3836 5.37683 7.53605 5.4089 7.63228 5.44099L7.24733 7.38979C7.07083 7.32563 6.77403 7.25346 6.35714 7.17325C5.95602 7.07702 5.4348 7.0289 4.79329 7.0289C4.37619 7.0289 3.9591 7.07702 3.54221 7.17325C3.14108 7.25346 2.87643 7.30958 2.74826 7.34167V17.8556H0.510742V5.87405C1.04005 5.68158 1.69753 5.50514 2.4836 5.34475C3.26947 5.16831 4.15157 5.0801 5.13012 5.0801ZM9.09368 11.6242C9.09368 10.5175 9.254 9.55512 9.57486 8.73711C9.89551 7.90306 10.3207 7.21334 10.85 6.66801C11.3793 6.12267 11.9887 5.71366 12.6785 5.44099C13.3681 5.16831 14.0739 5.03198 14.7957 5.03198C16.4799 5.03198 17.771 5.56128 18.6693 6.61989C19.5673 7.66246 20.0166 9.25838 20.0166 11.4077C20.0166 11.5039 20.0166 11.6322 20.0166 11.7926C20.0166 11.937 20.0085 12.0733 19.9925 12.2016H11.4274C11.5237 13.5008 11.9005 14.4873 12.5582 15.1609C13.2157 15.8346 14.2424 16.1714 15.6378 16.1714C16.4237 16.1714 17.0814 16.1073 17.6107 15.9789C18.1559 15.8346 18.5649 15.6983 18.8377 15.5699L19.1504 17.4466C18.8777 17.5909 18.3965 17.7434 17.7069 17.9037C17.0332 18.064 16.2633 18.1443 15.3972 18.1443C14.3064 18.1443 13.36 17.9839 12.5582 17.6631C11.7721 17.3263 11.1225 16.8691 10.6094 16.2917C10.0961 15.7143 9.71113 15.0325 9.45457 14.2467C9.21397 13.4447 9.09368 12.5706 9.09368 11.6242ZM17.6828 10.3972C17.6988 9.3867 17.4422 8.56066 16.9129 7.91909C16.3996 7.26146 15.6859 6.93266 14.7717 6.93266C14.2583 6.93266 13.8012 7.03692 13.4003 7.24543C13.0153 7.4379 12.6864 7.69453 12.4139 8.01533C12.1411 8.33612 11.9246 8.70502 11.7643 9.12205C11.6199 9.53909 11.5237 9.96413 11.4755 10.3972H17.6828ZM33.1913 17.4947C32.678 17.6231 31.9962 17.7593 31.1463 17.9037C30.3121 18.048 29.3418 18.1202 28.2351 18.1202C27.2727 18.1202 26.4626 17.9839 25.8051 17.7112C25.1474 17.4225 24.6181 17.0216 24.2172 16.5082C23.8161 15.9949 23.5274 15.3934 23.3511 14.7038C23.1746 13.9981 23.0864 13.2202 23.0864 12.3701V5.34475H25.3239V11.8889C25.3239 13.4126 25.5645 14.5032 26.0457 15.1609C26.5269 15.8186 27.3368 16.1474 28.4757 16.1474C28.7163 16.1474 28.9648 16.1393 29.2215 16.1233C29.4781 16.1073 29.7187 16.0911 29.9433 16.0752C30.1677 16.043 30.3683 16.019 30.5448 16.003C30.7373 15.9709 30.8735 15.9389 30.9538 15.9068V5.34475H33.1913V17.4947ZM37.046 5.70564C37.5593 5.57731 38.2408 5.44099 39.091 5.29663C39.9412 5.15228 40.9195 5.0801 42.0262 5.0801C43.0208 5.0801 43.8467 5.22445 44.5043 5.51316C45.162 5.78584 45.6832 6.1788 46.0682 6.69207C46.4691 7.18929 46.7499 7.79077 46.9103 8.49651C47.0706 9.20226 47.1509 9.98016 47.1509 10.8303V17.8556H44.9134V11.3114C44.9134 10.5415 44.8571 9.88392 44.7449 9.33858C44.6487 8.79325 44.4803 8.35216 44.2397 8.01533C43.9991 7.6785 43.6782 7.4379 43.2773 7.29355C42.8764 7.13316 42.379 7.05296 41.7856 7.05296C41.5451 7.05296 41.2964 7.06098 41.0398 7.07701C40.7832 7.09305 40.5346 7.11711 40.294 7.14919C40.0694 7.16523 39.8609 7.18928 39.6684 7.22137C39.4919 7.25346 39.3638 7.27752 39.2835 7.29355V17.8556H37.046V5.70564ZM53.0987 17.8556H50.8612V5.34475H53.0987V17.8556ZM51.9679 3.08318C51.567 3.08318 51.2221 2.95486 50.9333 2.69823C50.6608 2.42555 50.5243 2.06466 50.5243 1.61556C50.5243 1.16646 50.6608 0.813582 50.9333 0.556957C51.2221 0.284278 51.567 0.147949 51.9679 0.147949C52.369 0.147949 52.7059 0.284278 52.9784 0.556957C53.2671 0.813582 53.4115 1.16646 53.4115 1.61556C53.4115 2.06466 53.2671 2.42555 52.9784 2.69823C52.7059 2.95486 52.369 3.08318 51.9679 3.08318ZM67.9897 11.6002C67.9897 12.5946 67.8454 13.4928 67.5566 14.2948C67.2679 15.0968 66.8589 15.7865 66.3296 16.3639C65.8165 16.9413 65.1988 17.3903 64.4771 17.7112C63.7553 18.0159 62.9694 18.1683 62.1193 18.1683C61.2693 18.1683 60.4832 18.0159 59.7614 17.7112C59.0397 17.3903 58.4141 16.9413 57.8848 16.3639C57.3717 15.7865 56.9706 15.0968 56.6819 14.2948C56.3931 13.4928 56.2488 12.5946 56.2488 11.6002C56.2488 10.6218 56.3931 9.73156 56.6819 8.92958C56.9706 8.11156 57.3717 7.41385 57.8848 6.83642C58.4141 6.259 59.0397 5.81791 59.7614 5.51316C60.4832 5.19237 61.2693 5.03198 62.1193 5.03198C62.9694 5.03198 63.7553 5.19237 64.4771 5.51316C65.1988 5.81791 65.8165 6.259 66.3296 6.83642C66.8589 7.41385 67.2679 8.11156 67.5566 8.92958C67.8454 9.73156 67.9897 10.6218 67.9897 11.6002ZM65.656 11.6002C65.656 10.1887 65.3353 9.07393 64.6936 8.25592C64.0681 7.42187 63.21 7.00484 62.1193 7.00484C61.0287 7.00484 60.1626 7.42187 59.5208 8.25592C58.8953 9.07393 58.5825 10.1887 58.5825 11.6002C58.5825 13.0116 58.8953 14.1345 59.5208 14.9685C60.1626 15.7865 61.0287 16.1955 62.1193 16.1955C63.21 16.1955 64.0681 15.7865 64.6936 14.9685C65.3353 14.1345 65.656 13.0116 65.656 11.6002ZM71.1377 5.70564C71.6511 5.57731 72.3326 5.44099 73.1828 5.29663C74.0329 5.15228 75.0113 5.0801 76.118 5.0801C77.1125 5.0801 77.9384 5.22445 78.5961 5.51316C79.2538 5.78584 79.775 6.1788 80.16 6.69207C80.5609 7.18929 80.8417 7.79077 81.002 8.49651C81.1624 9.20226 81.2426 9.98016 81.2426 10.8303V17.8556H79.0051V11.3114C79.0051 10.5415 78.9489 9.88392 78.8367 9.33858C78.7405 8.79325 78.572 8.35216 78.3315 8.01533C78.0909 7.6785 77.77 7.4379 77.3691 7.29355C76.9682 7.13316 76.4708 7.05296 75.8774 7.05296C75.6368 7.05296 75.3881 7.06098 75.1316 7.07701C74.875 7.09305 74.6263 7.11711 74.3857 7.14919C74.1611 7.16523 73.9527 7.18928 73.7602 7.22137C73.5837 7.25346 73.4555 7.27752 73.3752 7.29355V17.8556H71.1377V5.70564Z" fill="white"/>
</svg>
