<svg width="26" height="25" viewBox="0 0 26 25" fill="none" xmlns="http://www.w3.org/2000/svg">
<path d="M13.3789 0C9.98672 0 9.56016 0.015625 8.22734 0.075C6.89453 0.1375 5.98672 0.346875 5.19141 0.65625C4.35718 0.97003 3.60155 1.46223 2.97734 2.09844C2.34153 2.72296 1.84939 3.4785 1.53516 4.3125C1.22578 5.10625 1.01484 6.01562 0.953906 7.34375C0.894531 8.67969 0.878906 9.10469 0.878906 12.5016C0.878906 15.8953 0.894531 16.3203 0.953906 17.6531C1.01641 18.9844 1.22578 19.8922 1.53516 20.6875C1.85547 21.5094 2.28203 22.2062 2.97734 22.9016C3.67109 23.5969 4.36797 24.025 5.18984 24.3437C5.98672 24.6531 6.89297 24.8641 8.22422 24.925C9.55859 24.9844 9.98359 25 13.3789 25C16.7742 25 17.1977 24.9844 18.532 24.925C19.8617 24.8625 20.7727 24.6531 21.568 24.3437C22.4017 24.0298 23.1567 23.5376 23.7805 22.9016C24.4758 22.2062 24.9023 21.5094 25.2227 20.6875C25.5305 19.8922 25.7414 18.9844 25.8039 17.6531C25.8633 16.3203 25.8789 15.8953 25.8789 12.5C25.8789 9.10469 25.8633 8.67969 25.8039 7.34531C25.7414 6.01563 25.5305 5.10625 25.2227 4.3125C24.9085 3.47848 24.4163 2.72293 23.7805 2.09844C23.1565 1.46199 22.4008 0.969758 21.5664 0.65625C20.7695 0.346875 19.8602 0.135938 18.5305 0.075C17.1961 0.015625 16.7727 0 13.3758 0H13.3805H13.3789ZM12.2586 2.25313H13.3805C16.718 2.25313 17.1133 2.26406 18.4305 2.325C19.6492 2.37969 20.3117 2.58438 20.7523 2.75469C21.3352 2.98125 21.7523 3.25312 22.1898 3.69062C22.6273 4.12812 22.8977 4.54375 23.1242 5.12813C23.2961 5.56719 23.4992 6.22969 23.5539 7.44844C23.6148 8.76563 23.6273 9.16094 23.6273 12.4969C23.6273 15.8328 23.6148 16.2297 23.5539 17.5469C23.4992 18.7656 23.2945 19.4266 23.1242 19.8672C22.9238 20.4099 22.6039 20.9007 22.1883 21.3031C21.7508 21.7406 21.3352 22.0109 20.7508 22.2375C20.3133 22.4094 19.6508 22.6125 18.4305 22.6688C17.1133 22.7281 16.718 22.7422 13.3805 22.7422C10.043 22.7422 9.64609 22.7281 8.32891 22.6688C7.11016 22.6125 6.44922 22.4094 6.00859 22.2375C5.46562 22.0374 4.97442 21.7181 4.57109 21.3031C4.15508 20.9001 3.83472 20.4088 3.63359 19.8656C3.46328 19.4266 3.25859 18.7641 3.20391 17.5453C3.14453 16.2281 3.13203 15.8328 3.13203 12.4937C3.13203 9.15625 3.14453 8.7625 3.20391 7.44531C3.26016 6.22656 3.46328 5.56406 3.63516 5.12344C3.86172 4.54063 4.13359 4.12344 4.57109 3.68594C5.00859 3.24844 5.42422 2.97813 6.00859 2.75156C6.44922 2.57969 7.11016 2.37656 8.32891 2.32031C9.48203 2.26719 9.92891 2.25156 12.2586 2.25V2.25313V2.25313ZM20.0523 4.32812C19.8554 4.32812 19.6603 4.36692 19.4783 4.44231C19.2963 4.51769 19.131 4.62818 18.9917 4.76746C18.8524 4.90675 18.7419 5.07211 18.6665 5.2541C18.5911 5.43609 18.5523 5.63114 18.5523 5.82813C18.5523 6.02511 18.5911 6.22016 18.6665 6.40215C18.7419 6.58414 18.8524 6.7495 18.9917 6.88879C19.131 7.02807 19.2963 7.13856 19.4783 7.21394C19.6603 7.28933 19.8554 7.32813 20.0523 7.32813C20.4502 7.32813 20.8317 7.17009 21.113 6.88879C21.3943 6.60748 21.5523 6.22595 21.5523 5.82813C21.5523 5.4303 21.3943 5.04877 21.113 4.76746C20.8317 4.48616 20.4502 4.32812 20.0523 4.32812V4.32812ZM13.3805 6.08125C12.529 6.06797 11.6834 6.2242 10.8929 6.54085C10.1024 6.85749 9.38284 7.32824 8.77602 7.92566C8.1692 8.52309 7.68729 9.23526 7.35835 10.0207C7.0294 10.8062 6.86 11.6492 6.86 12.5008C6.86 13.3523 7.0294 14.1954 7.35835 14.9808C7.68729 15.7663 8.1692 16.4785 8.77602 17.0759C9.38284 17.6733 10.1024 18.1441 10.8929 18.4607C11.6834 18.7774 12.529 18.9336 13.3805 18.9203C15.0657 18.894 16.673 18.2061 17.8554 17.0051C19.0379 15.804 19.7006 14.1862 19.7006 12.5008C19.7006 10.8154 19.0379 9.19752 17.8554 7.99648C16.673 6.79545 15.0657 6.10754 13.3805 6.08125V6.08125ZM13.3805 8.33281C14.4857 8.33281 15.5456 8.77185 16.3271 9.55335C17.1086 10.3349 17.5477 11.3948 17.5477 12.5C17.5477 13.6052 17.1086 14.6651 16.3271 15.4466C15.5456 16.2281 14.4857 16.6672 13.3805 16.6672C12.2753 16.6672 11.2153 16.2281 10.4338 15.4466C9.65232 14.6651 9.21328 13.6052 9.21328 12.5C9.21328 11.3948 9.65232 10.3349 10.4338 9.55335C11.2153 8.77185 12.2753 8.33281 13.3805 8.33281V8.33281Z" fill="url(#paint0_linear_1064_1580)"/>
<defs>
<linearGradient id="paint0_linear_1064_1580" x1="13.3789" y1="0" x2="13.3789" y2="25" gradientUnits="userSpaceOnUse">
<stop stop-color="#405DE6"/>
<stop offset="1" stop-color="#953AEF"/>
</linearGradient>
</defs>
</svg>
