<svg width="26" height="25" viewBox="0 0 26 25" fill="none" xmlns="http://www.w3.org/2000/svg">
<path d="M0.878906 1.79063C0.878906 0.801563 1.70078 0 2.71484 0H24.043C25.057 0 25.8789 0.801563 25.8789 1.79063V23.2094C25.8789 24.1984 25.057 25 24.043 25H2.71484C1.70078 25 0.878906 24.1984 0.878906 23.2094V1.79063ZM8.60234 20.9281V9.63906H4.85078V20.9281H8.60234ZM6.72734 8.09688C8.03516 8.09688 8.84922 7.23125 8.84922 6.14688C8.82578 5.03906 8.03672 4.19688 6.75234 4.19688C5.46797 4.19688 4.62891 5.04063 4.62891 6.14688C4.62891 7.23125 5.44297 8.09688 6.70234 8.09688H6.72734V8.09688ZM14.3961 20.9281V14.6234C14.3961 14.2859 14.4211 13.9484 14.5211 13.7078C14.7914 13.0344 15.4086 12.3359 16.4461 12.3359C17.8039 12.3359 18.3461 13.3703 18.3461 14.8891V20.9281H22.0977V14.4531C22.0977 10.9844 20.2477 9.37188 17.7789 9.37188C15.7883 9.37188 14.8961 10.4656 14.3961 11.2359V11.275H14.3711C14.3794 11.262 14.3877 11.2489 14.3961 11.2359V9.63906H10.6461C10.693 10.6984 10.6461 20.9281 10.6461 20.9281H14.3961Z" fill="#0072B1"/>
</svg>
