<svg width="79" height="18" viewBox="0 0 79 18" fill="none" xmlns="http://www.w3.org/2000/svg">
<path d="M4.69659 5.2809C4.88219 5.2809 5.09099 5.29636 5.32299 5.3273C5.57039 5.34276 5.81019 5.3737 6.04219 5.4201C6.27419 5.45104 6.48299 5.4897 6.66859 5.5361C6.86959 5.56704 7.01659 5.59796 7.10939 5.6289L6.73819 7.5081C6.56799 7.44624 6.28179 7.37664 5.87979 7.2993C5.49299 7.2065 4.99039 7.1601 4.37179 7.1601C3.96959 7.1601 3.56739 7.2065 3.16539 7.2993C2.77859 7.37664 2.52339 7.43076 2.39979 7.4617V17.6001H0.242188V6.0465C0.752587 5.8609 1.38659 5.69076 2.14459 5.5361C2.90239 5.36596 3.75299 5.2809 4.69659 5.2809ZM8.51859 11.5913C8.51859 10.5241 8.67319 9.5961 8.98259 8.8073C9.29179 8.00304 9.70179 7.33796 10.2122 6.8121C10.7226 6.28624 11.3102 5.89184 11.9754 5.6289C12.6404 5.36596 13.321 5.2345 14.017 5.2345C15.641 5.2345 16.886 5.7449 17.7522 6.7657C18.6182 7.77104 19.0514 9.30996 19.0514 11.3825C19.0514 11.4753 19.0514 11.599 19.0514 11.7537C19.0514 11.8929 19.0436 12.0244 19.0282 12.1481H10.769C10.8618 13.4009 11.2252 14.3521 11.8594 15.0017C12.4934 15.6513 13.4834 15.9761 14.829 15.9761C15.5868 15.9761 16.221 15.9143 16.7314 15.7905C17.2572 15.6513 17.6516 15.5199 17.9146 15.3961L18.2162 17.2057C17.9532 17.3449 17.4892 17.4919 16.8242 17.6465C16.1746 17.8011 15.4322 17.8785 14.597 17.8785C13.5452 17.8785 12.6326 17.7239 11.8594 17.4145C11.1014 17.0897 10.475 16.6489 9.98019 16.0921C9.48519 15.5353 9.11399 14.8779 8.86659 14.1201C8.63459 13.3468 8.51859 12.5038 8.51859 11.5913ZM16.801 10.4081C16.8164 9.4337 16.569 8.63716 16.0586 8.0185C15.5636 7.38436 14.8754 7.0673 13.9938 7.0673C13.4988 7.0673 13.058 7.16784 12.6714 7.3689C12.3002 7.5545 11.983 7.80196 11.7202 8.1113C11.4572 8.42064 11.2484 8.77636 11.0938 9.1785C10.9546 9.58064 10.8618 9.9905 10.8154 10.4081H16.801ZM31.7556 17.2521C31.2606 17.3759 30.6032 17.5073 29.7836 17.6465C28.9792 17.7857 28.0436 17.8553 26.9764 17.8553C26.0484 17.8553 25.2672 17.7239 24.6332 17.4609C23.999 17.1825 23.4886 16.7959 23.102 16.3009C22.7152 15.8059 22.4368 15.2259 22.2668 14.5609C22.0966 13.8804 22.0116 13.1302 22.0116 12.3105V5.5361H24.1692V11.8465C24.1692 13.3158 24.4012 14.3675 24.8652 15.0017C25.3292 15.6359 26.1102 15.9529 27.2084 15.9529C27.4404 15.9529 27.68 15.9451 27.9276 15.9297C28.175 15.9143 28.407 15.8987 28.6236 15.8833C28.84 15.8523 29.0334 15.8291 29.2036 15.8137C29.3892 15.7827 29.5206 15.7519 29.598 15.7209V5.5361H31.7556V17.2521ZM35.4726 5.8841C35.9676 5.76036 36.6248 5.6289 37.4446 5.4897C38.2644 5.3505 39.2078 5.2809 40.275 5.2809C41.234 5.2809 42.0304 5.4201 42.6646 5.6985C43.2988 5.96144 43.8014 6.34036 44.1726 6.8353C44.5592 7.31476 44.83 7.89476 44.9846 8.5753C45.1392 9.25584 45.2166 10.006 45.2166 10.8257V17.6001H43.059V11.2897C43.059 10.5473 43.0048 9.91316 42.8966 9.3873C42.8038 8.86144 42.6414 8.4361 42.4094 8.1113C42.1774 7.7865 41.868 7.5545 41.4814 7.4153C41.0948 7.26064 40.6152 7.1833 40.043 7.1833C39.811 7.1833 39.5712 7.19104 39.3238 7.2065C39.0764 7.22196 38.8366 7.24516 38.6046 7.2761C38.388 7.29156 38.187 7.31476 38.0014 7.3457C37.8312 7.37664 37.7076 7.39984 37.6302 7.4153V17.6001H35.4726V5.8841ZM50.952 17.6001H48.7944V5.5361H50.952V17.6001ZM49.8616 3.3553C49.475 3.3553 49.1424 3.23156 48.864 2.9841C48.6012 2.72116 48.4696 2.37316 48.4696 1.9401C48.4696 1.50704 48.6012 1.16676 48.864 0.919302C49.1424 0.656362 49.475 0.524902 49.8616 0.524902C50.2484 0.524902 50.5732 0.656362 50.836 0.919302C51.1144 1.16676 51.2536 1.50704 51.2536 1.9401C51.2536 2.37316 51.1144 2.72116 50.836 2.9841C50.5732 3.23156 50.2484 3.3553 49.8616 3.3553ZM65.3112 11.5681C65.3112 12.527 65.172 13.3932 64.8936 14.1665C64.6152 14.9399 64.2208 15.6049 63.7104 16.1617C63.2156 16.7185 62.62 17.1515 61.924 17.4609C61.228 17.7547 60.4702 17.9017 59.6504 17.9017C58.8308 17.9017 58.0728 17.7547 57.3768 17.4609C56.6808 17.1515 56.0776 16.7185 55.5672 16.1617C55.0724 15.6049 54.6856 14.9399 54.4072 14.1665C54.1288 13.3932 53.9896 12.527 53.9896 11.5681C53.9896 10.6246 54.1288 9.76624 54.4072 8.9929C54.6856 8.2041 55.0724 7.5313 55.5672 6.9745C56.0776 6.4177 56.6808 5.99236 57.3768 5.6985C58.0728 5.38916 58.8308 5.2345 59.6504 5.2345C60.4702 5.2345 61.228 5.38916 61.924 5.6985C62.62 5.99236 63.2156 6.4177 63.7104 6.9745C64.2208 7.5313 64.6152 8.2041 64.8936 8.9929C65.172 9.76624 65.3112 10.6246 65.3112 11.5681ZM63.0608 11.5681C63.0608 10.207 62.7516 9.1321 62.1328 8.3433C61.5296 7.53904 60.7022 7.1369 59.6504 7.1369C58.5988 7.1369 57.7636 7.53904 57.1448 8.3433C56.5416 9.1321 56.24 10.207 56.24 11.5681C56.24 12.9292 56.5416 14.0119 57.1448 14.8161C57.7636 15.6049 58.5988 15.9993 59.6504 15.9993C60.7022 15.9993 61.5296 15.6049 62.1328 14.8161C62.7516 14.0119 63.0608 12.9292 63.0608 11.5681ZM68.3468 5.8841C68.8418 5.76036 69.499 5.6289 70.3188 5.4897C71.1386 5.3505 72.082 5.2809 73.1492 5.2809C74.1082 5.2809 74.9046 5.4201 75.5388 5.6985C76.173 5.96144 76.6756 6.34036 77.0468 6.8353C77.4334 7.31476 77.7042 7.89476 77.8588 8.5753C78.0134 9.25584 78.0908 10.006 78.0908 10.8257V17.6001H75.9332V11.2897C75.9332 10.5473 75.879 9.91316 75.7708 9.3873C75.678 8.86144 75.5156 8.4361 75.2836 8.1113C75.0516 7.7865 74.7422 7.5545 74.3556 7.4153C73.969 7.26064 73.4894 7.1833 72.9172 7.1833C72.6852 7.1833 72.4454 7.19104 72.198 7.2065C71.9506 7.22196 71.7108 7.24516 71.4788 7.2761C71.2622 7.29156 71.0612 7.31476 70.8756 7.3457C70.7054 7.37664 70.5818 7.39984 70.5044 7.4153V17.6001H68.3468V5.8841Z" fill="#FEFEFE"/>
</svg>
