<svg width="26" height="21" viewBox="0 0 26 21" fill="none" xmlns="http://www.w3.org/2000/svg">
<path d="M8.73203 20.3136C18.1664 20.3136 23.3273 12.4964 23.3273 5.72921C23.3273 5.51046 23.3273 5.28858 23.318 5.06983C24.3227 4.34247 25.1899 3.44194 25.8789 2.41046C24.9403 2.82429 23.9457 3.09703 22.9273 3.21983C24.0001 2.57864 24.8035 1.56978 25.1883 0.380771C24.1804 0.977839 23.0774 1.39698 21.9273 1.61983C21.1542 0.796433 20.1311 0.250954 19.0165 0.0678916C17.902 -0.115171 16.7582 0.0743978 15.7622 0.607235C14.7663 1.14007 13.9739 1.98644 13.5077 3.01524C13.0416 4.04404 12.9276 5.19785 13.1836 6.29796C11.1441 6.19569 9.14893 5.66588 7.32741 4.74287C5.50589 3.81986 3.89873 2.52428 2.61016 0.940146C1.956 2.06996 1.75637 3.4064 2.05179 4.67806C2.34722 5.94973 3.11555 7.06129 4.20078 7.78702C3.38756 7.75939 2.59222 7.54102 1.87891 7.14952V7.21983C1.88031 8.4034 2.29032 9.55018 3.03965 10.4663C3.78897 11.3825 4.83164 12.0118 5.99141 12.248C5.55119 12.3692 5.09645 12.4297 4.63984 12.4276C4.31794 12.4286 3.99669 12.3988 3.68047 12.3386C4.00826 13.3574 4.64652 14.2482 5.50585 14.8862C6.36519 15.5242 7.40255 15.8774 8.47266 15.8964C6.65477 17.3242 4.40922 18.0986 2.09766 18.0948C1.69034 18.0966 1.28332 18.0731 0.878906 18.0245C3.22502 19.5202 5.94968 20.3144 8.73203 20.3136V20.3136Z" fill="#1DA1F2"/>
</svg>
