<svg width="26" height="18" viewBox="0 0 26 18" fill="none" xmlns="http://www.w3.org/2000/svg">
<path d="M13.4594 0H13.5985C14.8829 0.00468779 21.3911 0.051566 23.1459 0.52347C23.6764 0.667493 24.1598 0.948219 24.5478 1.3376C24.9358 1.72697 25.2148 2.21136 25.357 2.74236C25.5148 3.33615 25.6258 4.12213 25.7008 4.93312L25.7164 5.09563L25.7508 5.50191L25.7633 5.66442C25.8648 7.09263 25.8773 8.43021 25.8789 8.72242V8.83962C25.8773 9.14276 25.8633 10.571 25.7508 12.0586L25.7383 12.2226L25.7242 12.3851C25.6461 13.279 25.5304 14.1665 25.357 14.8197C25.2153 15.3509 24.9364 15.8355 24.5483 16.2249C24.1603 16.6144 23.6766 16.895 23.1459 17.0386C21.3333 17.5261 14.4438 17.5605 13.4891 17.562H13.2672C12.7843 17.562 10.7873 17.5527 8.69346 17.4808L8.42782 17.4714L8.29187 17.4652L8.02467 17.4542L7.75746 17.4433C6.02298 17.3667 4.37131 17.2433 3.61033 17.037C3.07981 16.8935 2.5963 16.6132 2.20825 16.224C1.82019 15.8349 1.54121 15.3506 1.39925 14.8197C1.2258 14.1681 1.11017 13.279 1.03204 12.3851L1.01954 12.2211L1.00704 12.0586C0.929921 10.9997 0.887188 9.93871 0.878906 8.87712L0.878906 8.68492C0.882031 8.34896 0.894532 7.18795 0.978913 5.90662L0.989851 5.74567L0.994538 5.66442L1.00704 5.50191L1.04142 5.09563L1.05704 4.93312C1.13205 4.12213 1.24299 3.33458 1.40081 2.74236C1.54253 2.21115 1.82141 1.72653 2.20948 1.33709C2.59755 0.947643 3.08118 0.667061 3.61189 0.52347C4.37287 0.320333 6.02454 0.195325 7.75902 0.117195L8.02467 0.106257L8.29343 0.0968813L8.42782 0.0921935L8.69502 0.0812553C10.1822 0.0334001 11.6699 0.00683303 13.1578 0.00156267H13.4594V0ZM10.8795 5.01594V12.5445L17.3753 8.7818L10.8795 5.01594Z" fill="#FF0000"/>
</svg>
