<svg width="24" height="27" viewBox="0 0 24 27" fill="none" xmlns="http://www.w3.org/2000/svg">
<path fill-rule="evenodd" clip-rule="evenodd" d="M22.593 0.743211C22.5982 0.746269 22.6034 0.749367 22.6086 0.752503C22.6142 0.755681 22.62 0.758915 22.6256 0.762211C23.1312 1.05694 23.3044 1.70946 23.0124 2.21968C21.0008 5.7332 19.9414 9.71912 19.941 13.7767C19.9406 17.8342 20.999 21.8203 23.01 25.3343C23.2834 25.8121 23.1488 26.4145 22.7156 26.7311C22.663 26.7781 22.6052 26.8203 22.542 26.8571C22.0362 27.1517 21.3894 26.9767 21.0976 26.4663C19.0874 22.9519 16.1956 20.0335 12.7129 18.0043C9.23022 15.9751 5.27938 14.9069 1.25766 14.9069C0.673635 14.9069 0.200195 14.4292 0.200195 13.84C0.200195 13.6284 0.261255 13.4312 0.366575 13.2653C0.542635 12.9228 0.897315 12.6889 1.3061 12.6889C5.32782 12.6898 9.27888 11.6224 12.762 9.59394C16.2451 7.56554 19.1376 4.64766 21.1484 1.13372C21.4404 0.623435 22.0872 0.448599 22.593 0.743211ZM8.34108 13.8058C10.2286 14.3679 12.0518 15.1551 13.7706 16.1565C15.504 17.1665 17.1034 18.3781 18.5388 19.7611C18.0672 17.8104 17.826 15.8016 17.8262 13.7765C17.8264 11.7929 18.0582 9.8251 18.5112 7.91216C17.0954 9.2642 15.522 10.4504 13.8193 11.442C12.0857 12.4515 10.2459 13.2432 8.34108 13.8058Z" fill="#FEFEFE"/>
</svg>
