<svg width="16" height="12" viewBox="0 0 16 12" fill="none" xmlns="http://www.w3.org/2000/svg">
<path d="M8.0515 0H8.14051C8.96256 0.00300019 13.1278 0.0330022 14.2509 0.335021C14.5904 0.427195 14.8998 0.60686 15.1481 0.856062C15.3964 1.10526 15.575 1.41527 15.666 1.75511C15.767 2.13513 15.838 2.63817 15.886 3.1572L15.896 3.2612L15.918 3.52122L15.926 3.62523C15.991 4.53928 15.999 5.39534 16 5.58235V5.65735C15.999 5.85137 15.99 6.76542 15.918 7.71748L15.91 7.82249L15.901 7.9265C15.851 8.49853 15.777 9.06657 15.666 9.48459C15.5753 9.82457 15.3968 10.1347 15.1484 10.384C14.9001 10.6332 14.5905 10.8128 14.2509 10.9047C13.0908 11.2167 8.68154 11.2387 8.07051 11.2397H7.9285C7.61948 11.2397 6.3414 11.2337 5.00131 11.1877L4.8313 11.1817L4.7443 11.1777L4.57329 11.1707L4.40228 11.1637C3.29221 11.1147 2.23514 11.0357 1.74811 10.9037C1.40858 10.8119 1.09913 10.6324 0.850778 10.3834C0.602421 10.1343 0.423873 9.82438 0.333021 9.48459C0.222014 9.06757 0.148009 8.49853 0.0980061 7.9265L0.0900056 7.82149L0.0820051 7.71748C0.0326496 7.03984 0.0053002 6.36077 0 5.68136L0 5.55835C0.00200013 5.34333 0.0100006 4.60029 0.064004 3.78024L0.0710044 3.67723L0.0740046 3.62523L0.0820051 3.52122L0.104007 3.2612L0.114007 3.1572C0.16201 2.63817 0.233015 2.13413 0.334021 1.75511C0.42472 1.41514 0.6032 1.10498 0.851566 0.855736C1.09993 0.606492 1.40946 0.426919 1.74911 0.335021C2.23614 0.205013 3.29321 0.125008 4.40328 0.0750046L4.57329 0.0680042L4.7453 0.062004L4.8313 0.0590038L5.00231 0.0520034C5.95408 0.0213761 6.90624 0.00437314 7.85849 0.00100011H8.0515V0ZM6.4004 3.2102V8.0285L10.5577 5.62035L6.4004 3.2102Z" fill="#FF0000"/>
</svg>
